<?xml version="1.0" encoding="utf-8"?>
<!-- Generator: Adobe Illustrator 16.0.0, SVG Export Plug-In . SVG Version: 6.00 Build 0)  -->
<!DOCTYPE svg PUBLIC "-//W3C//DTD SVG 1.1//EN" "http://www.w3.org/Graphics/SVG/1.1/DTD/svg11.dtd">
<svg version="1.1" id="Layer_1" xmlns="http://www.w3.org/2000/svg" xmlns:xlink="http://www.w3.org/1999/xlink" x="0px" y="0px"
	 width="518.242px" height="575.478px" viewBox="0 0 518.242 575.478" enable-background="new 0 0 518.242 575.478"
	 xml:space="preserve">
<g>
	<g>
		<path fill-rule="evenodd" clip-rule="evenodd" fill="#D10A11" d="M516.345,307.006c-4.591-38.053-17.862-72.87-39.235-104.641
			c-2.114-3.143-4.225-6.287-6.324-9.412c6.215-6.578,12.579-12.707,18.243-19.427c14.138-16.771,12.062-42.112-4.286-56.284
			c-16.015-13.885-40.77-12.736-55.675,2.545c-5.66,5.803-11.399,11.527-17.121,17.307c-28.672-19.095-59.469-30.999-92.483-36.883
			V80.697c2.148-0.478,4.098-0.868,6.025-1.346c18.852-4.672,32.205-23.381,30.15-42.219c-2.268-20.773-18.36-36.692-38.02-36.898
			c-25.825-0.271-51.659-0.358-77.481,0.021c-24.844,0.365-43.742,26.575-36.7,50.372c5.107,17.259,17.045,26.845,34.812,30.025
			c0.176,0.794,0.373,1.276,0.377,1.76c0.037,4.5-0.15,9.011,0.114,13.495c0.206,3.501-0.945,4.792-4.552,5.492
			c-48.596,9.432-90.449,31.675-125.478,66.677c-6.909,6.903-7.137,15.918-0.916,22.226c4.654,4.718,14.977,6.563,21.972-0.61
			c6.489-6.654,13.544-12.849,20.876-18.571c30.508-23.813,65.207-37.575,103.488-42.854c4.04-0.558,8.916-3.019,11.215-6.185
			c1.069-1.473,2.173-2.49,3.347-3.191v-2.541h-0.133c0-12.106,0-23.896-0.001-35.687c-0.001-4.831,0.093-9.665-0.032-14.494
			c-0.248-9.56-6.111-15.433-15.705-15.747c-4.161-0.136-8.333,0.056-12.494-0.072c-6.535-0.2-10.188-3.886-10.383-10.271
			c-0.171-5.574,3.861-10.048,10.078-10.088c25.976-0.163,51.953-0.163,77.93,0.018c6.206,0.043,10.205,4.521,10.063,10.112
			c-0.159,6.232-3.98,10.028-10.478,10.231c-3.828,0.12-7.664-0.009-11.495,0.05c-10.675,0.163-16.782,6.167-16.839,16.792
			c-0.086,16.149-0.021,32.3-0.021,49.156h-0.178v2.659c0.869,0.53,1.647,1.204,2.172,1.928c3.123,4.313,6.968,6.88,12.334,7.536
			c36.436,4.454,69.561,17.383,99.275,38.998c8.957,6.517,15.213,6.021,22.971-1.672c7.811-7.745,15.553-15.56,23.363-23.305
			c5.49-5.444,11.844-5.966,16.239-1.419c4.267,4.415,3.691,10.593-1.551,15.862c-7.405,7.443-14.86,14.836-22.273,22.272
			c-7.901,7.925-8.36,15.866-1.169,24.199c16.427,19.037,28.414,40.659,36.431,64.351c17.255,50.995,15.502,101.532-5.49,151.139
			c-16.007,37.824-41.338,68.336-75.548,90.905c-54.786,36.146-114.191,44.727-177.183,26.7
			c-36.878-10.555-68.116-30.697-94.001-58.963c-7.229-7.894-17.246-6.283-22.241-1.607c-4.896,4.582-7.298,14.69,0.031,21.9
			c3.555,3.497,6.824,7.294,10.473,10.687c58.458,54.346,127.443,76.286,206.048,63.334
			c69.47-11.448,123.857-48.044,161.924-107.373C511.582,416.528,523.184,363.706,516.345,307.006z"/>
		<path fill-rule="evenodd" clip-rule="evenodd" fill="#D10A11" d="M278.848,159.319c93.197,1.918,161.167,67.521,174.477,146.938
			c8.816,52.607-3.998,100.022-36.916,141.466c-20.463,25.763-47.045,43.98-78.335,54.979
			c-36.72,12.907-73.864,13.518-110.869,2.421c-27.484-8.241-51.644-22.886-72.129-43.238c-6.514-6.472-6.972-15.604-1.068-21.798
			c6.003-6.299,15.07-6.372,21.837,0.189c23.727,23.008,51.784,37.476,84.65,41.204c53.467,6.065,98.118-11.587,132.65-52.878
			c23.717-28.356,34.564-61.712,32.76-98.624c-2.188-44.717-21.023-81.292-56.217-109.163
			c-26.997-21.38-57.998-31.613-92.256-31.201c-32.432,0.392-61.799,10.515-87.526,30.506c-4.983,3.873-9.627,8.19-14.348,12.393
			c-6.677,5.943-15.68,5.914-21.521-0.167c-5.839-6.078-5.644-15.167,0.77-21.461c28.652-28.117,62.901-44.799,102.756-49.775
			C264.988,160.181,272.486,159.84,278.848,159.319z"/>
		<path fill-rule="evenodd" clip-rule="evenodd" fill="#D10A11" d="M278.136,386.476c-38.584-1.425-61.385-40.729-43.334-74.701
			c11.616-21.86,38.769-31.327,63.429-21.786c3.481,1.347,5.261,0.603,7.6-1.775c11.209-11.396,22.544-22.668,33.903-33.914
			c4.669-4.622,10.259-6.163,16.486-3.716c5.579,2.192,8.773,6.498,9.415,12.472c0.554,5.163-1.525,9.352-5.159,12.956
			c-10.64,10.553-21.175,21.213-31.843,31.737c-3.363,3.319-4.797,6.001-2.742,11.396
			C338.394,351.976,312.763,387.755,278.136,386.476z M278.866,356.221c12.016-0.341,20.552-9.099,20.173-20.696
			c-0.372-11.428-9.668-19.654-21.721-19.224c-10.2,0.365-18.644,9.797-18.398,20.552
			C259.172,347.854,268.104,356.527,278.866,356.221z"/>
		<path fill-rule="evenodd" clip-rule="evenodd" fill="#D10A11" d="M66.088,245.27c16.978,0.005,33.957-0.099,50.933,0.041
			c11.303,0.093,18.562,9.854,15.092,19.93c-2.19,6.36-7.848,10.095-15.61,10.104c-28.141,0.031-56.282,0.014-84.423,0.013
			c-5.663,0-11.329,0.112-16.988-0.035c-8.836-0.23-15.299-6.845-15.087-15.231c0.212-8.393,6.984-14.822,15.619-14.823
			C32.445,245.265,49.267,245.266,66.088,245.27z"/>
		<path fill-rule="evenodd" clip-rule="evenodd" fill="#D10A11" d="M102.553,317.19c16.479-0.001,32.958-0.021,49.437,0.007
			c10.028,0.018,16.991,6.2,16.987,14.991c-0.003,8.762-7.003,15.05-16.997,15.062c-33.117,0.038-66.234,0.044-99.352-0.005
			c-9.998-0.016-16.766-6.359-16.63-15.318c0.133-8.758,6.803-14.705,16.649-14.727C69.282,317.165,85.918,317.19,102.553,317.19z"
			/>
		<path fill-rule="evenodd" clip-rule="evenodd" fill="#D10A11" d="M66.586,389.155c16.64,0,33.281-0.023,49.921,0.009
			c9.661,0.019,16.502,6.244,16.508,14.915c0.006,8.742-7.428,15.214-16.943,15.185c-32.119-0.101-64.237-0.063-96.356-0.079
			c-1.332-0.001-2.666,0.034-3.996-0.019c-9.281-0.368-15.818-6.743-15.705-15.292c0.113-8.534,6.864-14.814,16.129-14.842
			c16.813-0.048,33.627-0.014,50.441-0.014C66.585,389.064,66.586,389.11,66.586,389.155z"/>
		<path fill-rule="evenodd" clip-rule="evenodd" fill="#D10A11" d="M86.34,283.026c0.005-0.064,0.185-0.117,0.563-0.342"/>
		<path fill-rule="evenodd" clip-rule="evenodd" fill="#D10A11" d="M85.684,300.784c-0.191-0.01-0.382-0.021-0.574-0.03"/>
	</g>
</g>
</svg>
